<svg xmlns="http://www.w3.org/2000/svg" xmlns:xlink="http://www.w3.org/1999/xlink" width="500" zoomAndPan="magnify" viewBox="0 0 375 374.999991" height="500" preserveAspectRatio="xMidYMid meet" version="1.0"><defs><clipPath id="c6fb34db6d"><path d="M 0.136719 87 L 374.863281 87 L 374.863281 341.222656 L 0.136719 341.222656 Z M 0.136719 87 " clip-rule="nonzero"/></clipPath><clipPath id="905c61ec66"><path d="M 47 33.75 L 154 33.75 L 154 189 L 47 189 Z M 47 33.75 " clip-rule="nonzero"/></clipPath><clipPath id="944faeb262"><path d="M 102 196 L 116 196 L 116 208 L 102 208 Z M 102 196 " clip-rule="nonzero"/></clipPath><clipPath id="f3f80b707f"><path d="M 140.292969 187.5 L 141.207031 231.738281 L 81.96875 232.960938 L 81.054688 188.71875 Z M 140.292969 187.5 " clip-rule="nonzero"/></clipPath><clipPath id="77f844e078"><path d="M 140.292969 187.5 L 141.207031 231.738281 L 81.96875 232.960938 L 81.054688 188.71875 Z M 140.292969 187.5 " clip-rule="nonzero"/></clipPath><clipPath id="e412faf1d4"><path d="M 140.292969 187.5 L 141.207031 231.738281 L 81.96875 232.960938 L 81.054688 188.71875 Z M 140.292969 187.5 " clip-rule="nonzero"/></clipPath><clipPath id="560e430098"><path d="M 81 213 L 95 213 L 95 225 L 81 225 Z M 81 213 " clip-rule="nonzero"/></clipPath><clipPath id="7ae813135d"><path d="M 140.292969 187.5 L 141.207031 231.738281 L 81.96875 232.960938 L 81.054688 188.71875 Z M 140.292969 187.5 " clip-rule="nonzero"/></clipPath><clipPath id="96a0e0937a"><path d="M 140.292969 187.5 L 141.207031 231.738281 L 81.96875 232.960938 L 81.054688 188.71875 Z M 140.292969 187.5 " clip-rule="nonzero"/></clipPath><clipPath id="fe69af8f3f"><path d="M 140.292969 187.5 L 141.207031 231.738281 L 81.96875 232.960938 L 81.054688 188.71875 Z M 140.292969 187.5 " clip-rule="nonzero"/></clipPath><clipPath id="dbe34421cb"><path d="M 114 191 L 141 191 L 141 209 L 114 209 Z M 114 191 " clip-rule="nonzero"/></clipPath><clipPath id="f329f991d3"><path d="M 140.292969 187.5 L 141.207031 231.738281 L 81.96875 232.960938 L 81.054688 188.71875 Z M 140.292969 187.5 " clip-rule="nonzero"/></clipPath><clipPath id="67739eaca5"><path d="M 140.292969 187.5 L 141.207031 231.738281 L 81.96875 232.960938 L 81.054688 188.71875 Z M 140.292969 187.5 " clip-rule="nonzero"/></clipPath><clipPath id="f839d95b32"><path d="M 140.292969 187.5 L 141.207031 231.738281 L 81.96875 232.960938 L 81.054688 188.71875 Z M 140.292969 187.5 " clip-rule="nonzero"/></clipPath><clipPath id="e1f74c056c"><path d="M 93 211 L 120 211 L 120 229 L 93 229 Z M 93 211 " clip-rule="nonzero"/></clipPath><clipPath id="2515bb83cd"><path d="M 140.292969 187.5 L 141.207031 231.738281 L 81.96875 232.960938 L 81.054688 188.71875 Z M 140.292969 187.5 " clip-rule="nonzero"/></clipPath><clipPath id="a97f6a1444"><path d="M 140.292969 187.5 L 141.207031 231.738281 L 81.96875 232.960938 L 81.054688 188.71875 Z M 140.292969 187.5 " clip-rule="nonzero"/></clipPath><clipPath id="730c0fbfb7"><path d="M 140.292969 187.5 L 141.207031 231.738281 L 81.96875 232.960938 L 81.054688 188.71875 Z M 140.292969 187.5 " clip-rule="nonzero"/></clipPath></defs><path fill="#000000" d="M 245.773438 152.429688 L 246.542969 159.882812 C 249.007812 159.644531 251.558594 159.515625 254.132812 159.515625 C 256.253906 159.515625 258.441406 159.601562 260.632812 159.769531 L 261.226562 152.300781 C 258.839844 152.121094 256.453125 152.027344 254.132812 152.027344 C 251.304688 152.027344 248.496094 152.164062 245.773438 152.429688 " fill-opacity="1" fill-rule="nonzero"/><path fill="#000000" d="M 216.273438 161.703125 L 220.152344 168.167969 C 224.167969 165.871094 228.445312 164.007812 232.859375 162.628906 L 230.523438 155.496094 C 225.574219 157.039062 220.777344 159.128906 216.273438 161.703125 " fill-opacity="1" fill-rule="nonzero"/><path fill="#000000" d="M 113.734375 263.976562 C 118.792969 262.972656 123.773438 261.5625 128.535156 259.785156 L 125.789062 252.789062 C 121.421875 254.417969 116.851562 255.714844 112.203125 256.636719 L 113.734375 263.976562 " fill-opacity="1" fill-rule="nonzero"/><path fill="#000000" d="M 193.25 181.730469 L 199.28125 186.359375 C 202.296875 182.617188 205.527344 179.214844 208.886719 176.261719 L 203.746094 170.699219 C 200.066406 173.941406 196.535156 177.652344 193.25 181.730469 " fill-opacity="1" fill-rule="nonzero"/><path fill="#000000" d="M 83.851562 258.027344 L 83.171875 265.484375 C 86.597656 265.785156 90.027344 265.9375 93.367188 265.9375 C 95.078125 265.9375 96.796875 265.898438 98.480469 265.820312 L 98.117188 258.335938 C 96.554688 258.410156 94.953125 258.445312 93.367188 258.445312 C 90.253906 258.445312 87.054688 258.304688 83.851562 258.027344 " fill-opacity="1" fill-rule="nonzero"/><path fill="#000000" d="M 150.15625 238.867188 C 146.445312 241.835938 142.535156 244.507812 138.53125 246.800781 L 142.417969 253.261719 C 146.761719 250.769531 151.003906 247.878906 155.019531 244.664062 L 150.15625 238.867188 " fill-opacity="1" fill-rule="nonzero"/><path fill="#000000" d="M 169.601562 218.496094 C 166.714844 222.363281 163.65625 226.003906 160.515625 229.316406 L 166.148438 234.40625 C 169.492188 230.878906 172.742188 227.007812 175.804688 222.90625 L 169.601562 218.496094 " fill-opacity="1" fill-rule="nonzero"/><path fill="#000000" d="M 53.402344 259.40625 C 58.292969 260.960938 63.234375 262.253906 68.089844 263.257812 L 69.679688 255.929688 C 65.085938 254.980469 60.410156 253.753906 55.777344 252.28125 L 53.402344 259.40625 " fill-opacity="1" fill-rule="nonzero"/><path fill="#000000" d="M 301.945312 170.980469 C 306.210938 172.863281 310.578125 175 314.933594 177.324219 L 318.617188 170.75 C 314.09375 168.335938 309.550781 166.117188 305.109375 164.15625 L 301.945312 170.980469 " fill-opacity="1" fill-rule="nonzero"/><path fill="#000000" d="M 274.707031 161.867188 C 279.1875 162.847656 283.835938 164.148438 288.527344 165.734375 L 291.039062 158.65625 C 286.078125 156.980469 281.144531 155.601562 276.386719 154.558594 L 274.707031 161.867188 " fill-opacity="1" fill-rule="nonzero"/><g clip-path="url(#c6fb34db6d)"><path fill="#000000" d="M 278.84375 234.621094 L 274.738281 234.878906 L 271.714844 237.667969 L 220.65625 284.769531 L 173.214844 142.023438 L 223.691406 98.960938 L 294.664062 101.617188 L 332.019531 178.503906 C 331.875 178.410156 331.726562 178.320312 331.585938 178.230469 L 327.476562 184.554688 C 331.179688 186.847656 334.871094 189.285156 338.480469 191.800781 L 356.882812 229.675781 Z M 302.050781 90.289062 L 219.605469 87.207031 L 164.511719 134.207031 L 150.898438 131.8125 C 149.121094 135.273438 147.175781 138.859375 145.066406 142.554688 L 162.179688 145.570312 L 180.664062 201.1875 C 179.625 203.078125 178.558594 204.929688 177.484375 206.722656 L 183.683594 210.273438 L 209.871094 289.085938 L 130.625 285.464844 L 127.203125 285.304688 L 124.242188 287.039062 L 61.324219 323.847656 L 39.472656 253.554688 L 42.296875 247.269531 C 40.21875 246.378906 38.355469 245.527344 36.738281 244.75 L 13.820312 171.019531 L 56.691406 143.332031 C 54.683594 139.835938 52.816406 136.4375 51.101562 133.144531 L 0.136719 166.058594 L 54.585938 341.222656 L 130.097656 297.042969 L 219.988281 301.15625 L 279.578125 246.191406 L 374.863281 240.152344 L 302.050781 90.289062 " fill-opacity="1" fill-rule="nonzero"/></g><g clip-path="url(#905c61ec66)"><path fill="#000000" d="M 71.632812 83.675781 C 71.632812 67.648438 84.628906 54.652344 100.65625 54.652344 C 116.6875 54.652344 129.679688 67.648438 129.679688 83.675781 C 129.679688 99.703125 116.6875 112.699219 100.65625 112.699219 C 84.628906 112.699219 71.632812 99.703125 71.632812 83.675781 Z M 153.917969 87.007812 C 153.917969 57.59375 130.074219 33.746094 100.65625 33.746094 C 71.242188 33.746094 47.394531 57.59375 47.394531 87.007812 C 47.394531 121.367188 100.65625 188.53125 100.65625 188.53125 C 100.65625 188.53125 153.917969 121.367188 153.917969 87.007812 " fill-opacity="1" fill-rule="nonzero"/></g><g clip-path="url(#944faeb262)"><g clip-path="url(#f3f80b707f)"><g clip-path="url(#77f844e078)"><g clip-path="url(#e412faf1d4)"><path fill="#000000" d="M 103.53125 199.601562 C 102.859375 200.496094 102.558594 201.480469 102.582031 202.59375 C 102.589844 203.058594 102.648438 203.570312 102.796875 204.078125 C 102.796875 204.171875 103.300781 206.300781 105.53125 207.371094 C 107.804688 208.4375 110.921875 207.910156 114.835938 205.875 C 115.199219 205.683594 115.421875 205.214844 115.320312 204.796875 L 113.273438 196.9375 C 113.171875 196.519531 112.796875 196.246094 112.382812 196.257812 C 112.0625 196.261719 105.902344 196.390625 103.53125 199.601562 Z M 103.53125 199.601562 " fill-opacity="1" fill-rule="nonzero"/></g></g></g></g><g clip-path="url(#560e430098)"><g clip-path="url(#7ae813135d)"><g clip-path="url(#96a0e0937a)"><g clip-path="url(#fe69af8f3f)"><path fill="#000000" d="M 91.765625 224.578125 C 92.179688 224.566406 92.542969 224.28125 92.625 223.863281 L 94.347656 215.921875 C 94.429688 215.503906 94.238281 215.085938 93.820312 214.863281 C 89.824219 212.949219 86.691406 212.59375 84.460938 213.753906 C 82.277344 214.871094 81.863281 217.0625 81.863281 217.109375 C 81.734375 217.625 81.699219 218.136719 81.710938 218.648438 C 81.734375 219.761719 82.074219 220.730469 82.785156 221.601562 C 85.332031 224.710938 91.492188 224.582031 91.765625 224.578125 Z M 91.765625 224.578125 " fill-opacity="1" fill-rule="nonzero"/></g></g></g></g><g clip-path="url(#dbe34421cb)"><g clip-path="url(#f329f991d3)"><g clip-path="url(#67739eaca5)"><g clip-path="url(#f839d95b32)"><path fill="#000000" d="M 127.078125 208.460938 C 127.308594 208.5 132.695312 208.949219 137.179688 205.460938 C 139.035156 204.027344 140.058594 202.332031 140.203125 200.425781 C 140.460938 197.304688 138.152344 194.796875 138.058594 194.703125 C 138.058594 194.703125 138.011719 194.660156 138.011719 194.660156 C 130.417969 187.703125 115.214844 195.222656 114.574219 195.515625 C 114.257812 195.660156 114.078125 195.988281 114.085938 196.359375 C 114.089844 196.453125 114.089844 196.5 114.136719 196.59375 L 116.191406 204.730469 C 116.242188 205.011719 116.433594 205.238281 116.664062 205.328125 C 116.894531 205.414062 117.171875 205.457031 117.445312 205.355469 C 118.222656 205.015625 120.078125 205.769531 121.148438 206.398438 C 123.898438 208.292969 126.984375 208.460938 127.078125 208.460938 Z M 121.847656 200.152344 C 121.835938 199.640625 122.242188 199.214844 122.746094 199.203125 C 123.253906 199.195312 123.675781 199.601562 123.683594 200.113281 C 123.695312 200.625 123.289062 201.050781 122.785156 201.0625 C 122.277344 201.074219 121.855469 200.664062 121.847656 200.152344 Z M 126.605469 201.214844 C 126.507812 201.03125 126.367188 200.847656 126.089844 200.855469 L 125.082031 200.875 C 124.574219 200.886719 124.152344 200.476562 124.140625 199.964844 C 124.132812 199.453125 124.535156 199.027344 125.042969 199.015625 L 126.097656 198.996094 C 127.066406 198.976562 127.949219 199.5625 128.335938 200.484375 C 128.578125 201.082031 129.230469 201.488281 129.921875 201.472656 C 130.796875 201.457031 131.515625 200.695312 131.496094 199.859375 C 131.488281 199.441406 131.34375 199.027344 131.015625 198.707031 C 130.6875 198.390625 130.269531 198.210938 129.808594 198.222656 C 129.304688 198.230469 128.878906 197.820312 128.871094 197.3125 C 128.859375 196.800781 129.265625 196.375 129.769531 196.363281 C 130.734375 196.34375 131.617188 196.695312 132.273438 197.378906 C 132.929688 198.019531 133.320312 198.941406 133.335938 199.824219 C 133.328125 201.683594 131.84375 203.246094 129.960938 203.332031 C 128.535156 203.363281 127.183594 202.554688 126.605469 201.214844 Z M 126.605469 201.214844 " fill-opacity="1" fill-rule="nonzero"/></g></g></g></g><g clip-path="url(#e1f74c056c)"><g clip-path="url(#2515bb83cd)"><g clip-path="url(#a97f6a1444)"><g clip-path="url(#730c0fbfb7)"><path fill="#000000" d="M 94.035156 225.226562 C 94.683594 225.539062 110.1875 232.378906 117.488281 225.113281 C 117.488281 225.113281 117.53125 225.066406 117.53125 225.066406 C 117.621094 224.972656 119.820312 222.417969 119.433594 219.261719 C 119.210938 217.363281 118.121094 215.710938 116.207031 214.355469 C 111.585938 211.105469 106.21875 211.773438 106.035156 211.777344 C 105.898438 211.777344 102.824219 212.121094 100.105469 214.128906 C 99.109375 214.800781 97.238281 215.628906 96.449219 215.320312 C 96.21875 215.234375 95.898438 215.238281 95.671875 215.382812 C 95.445312 215.527344 95.261719 215.71875 95.222656 215.996094 L 93.507812 224.214844 C 93.507812 224.308594 93.464844 224.355469 93.464844 224.449219 C 93.472656 224.726562 93.707031 225.046875 94.035156 225.226562 Z M 100.191406 220.589844 C 100.183594 220.078125 100.585938 219.652344 101.09375 219.640625 C 101.597656 219.632812 102.019531 220.042969 102.03125 220.550781 C 102.042969 221.0625 101.636719 221.492188 101.132812 221.5 C 100.625 221.511719 100.203125 221.101562 100.191406 220.589844 Z M 104.953125 221.65625 C 104.855469 221.46875 104.714844 221.289062 104.4375 221.292969 L 103.425781 221.3125 C 102.921875 221.324219 102.5 220.914062 102.488281 220.402344 C 102.476562 219.890625 102.882812 219.464844 103.390625 219.457031 L 104.445312 219.433594 C 105.410156 219.414062 106.296875 220 106.683594 220.921875 C 106.925781 221.519531 107.578125 221.925781 108.269531 221.910156 C 109.140625 221.894531 109.863281 221.132812 109.84375 220.296875 C 109.835938 219.878906 109.691406 219.464844 109.359375 219.144531 C 109.03125 218.828125 108.613281 218.648438 108.15625 218.660156 C 107.648438 218.667969 107.226562 218.261719 107.214844 217.75 C 107.207031 217.238281 107.609375 216.8125 108.117188 216.800781 C 109.082031 216.78125 109.964844 217.132812 110.621094 217.816406 C 111.277344 218.457031 111.664062 219.332031 111.683594 220.261719 C 111.675781 222.121094 110.191406 223.683594 108.308594 223.769531 C 106.882812 223.800781 105.53125 222.992188 104.953125 221.65625 Z M 104.953125 221.65625 " fill-opacity="1" fill-rule="nonzero"/></g></g></g></g></svg>